<?xml version="1.0" encoding="utf-8"?>
<!-- Generator: Adobe Illustrator 20.0.0, SVG Export Plug-In . SVG Version: 6.00 Build 0)  -->
<svg version="1.1" id="Warsteiner_Markengruppe" xmlns="http://www.w3.org/2000/svg" xmlns:xlink="http://www.w3.org/1999/xlink"
	 x="0px" y="0px" viewBox="0 0 232.4 232.4" style="enable-background:new 0 0 232.4 232.4;" xml:space="preserve">
<style type="text/css">
	.st0{fill:url(#SVGID_1_);}
	.st1{fill:#FFFFFF;}
	.st2{fill:#070401;}
	.st3{fill:url(#SVGID_2_);}
	.st4{fill:url(#SVGID_3_);}
	.st5{fill:#E1C895;}
</style>
<g>
	<linearGradient id="SVGID_1_" gradientUnits="userSpaceOnUse" x1="0.8598" y1="116.2205" x2="231.5811" y2="116.2205">
		<stop  offset="0" style="stop-color:#D6BB7B"/>
		<stop  offset="4.398216e-02" style="stop-color:#DCC285"/>
		<stop  offset="0.1122" style="stop-color:#EDD9A1"/>
		<stop  offset="0.1297" style="stop-color:#F3E0AA"/>
		<stop  offset="0.2488" style="stop-color:#E1C88C"/>
		<stop  offset="0.3466" style="stop-color:#D6BB7B"/>
		<stop  offset="0.4406" style="stop-color:#D6BB7B"/>
		<stop  offset="0.5213" style="stop-color:#D1B679"/>
		<stop  offset="0.6463" style="stop-color:#C5A972"/>
		<stop  offset="0.6579" style="stop-color:#C4A872"/>
		<stop  offset="0.7011" style="stop-color:#F3E0AA"/>
		<stop  offset="0.7058" style="stop-color:#F7E8B9"/>
		<stop  offset="0.7135" style="stop-color:#FBF2CB"/>
		<stop  offset="0.7215" style="stop-color:#FEF8D6"/>
		<stop  offset="0.7299" style="stop-color:#FFFAD9"/>
		<stop  offset="0.8237" style="stop-color:#EEDFB2"/>
		<stop  offset="0.939" style="stop-color:#DCC48A"/>
		<stop  offset="1" style="stop-color:#D6BB7B"/>
	</linearGradient>
	<path class="st0" d="M116.2,231.6c-63.6,0-115.4-51.7-115.4-115.4C0.9,52.6,52.6,0.9,116.2,0.9c63.6,0,115.4,51.8,115.4,115.4
		C231.6,179.8,179.8,231.6,116.2,231.6z"/>
	<g>
		<g>
			<g>
				<path class="st1" d="M116.2,220.3c-57.4,0-104.1-46.7-104.1-104.1c0-57.4,46.7-104.1,104.1-104.1c57.4,0,104.1,46.7,104.1,104.1
					C220.3,173.6,173.6,220.3,116.2,220.3z"/>
				<path class="st2" d="M116.2,9.3c-59,0-106.9,48-106.9,106.9c0,59,48,106.9,106.9,106.9c59,0,106.9-48,106.9-106.9
					C223.2,57.3,175.2,9.3,116.2,9.3z M116.2,220.3c-57.4,0-104.1-46.7-104.1-104.1c0-57.4,46.7-104.1,104.1-104.1
					c57.4,0,104.1,46.7,104.1,104.1C220.3,173.6,173.6,220.3,116.2,220.3z"/>
				<linearGradient id="SVGID_2_" gradientUnits="userSpaceOnUse" x1="57.6705" y1="116.2327" x2="181.5862" y2="116.2327">
					<stop  offset="0" style="stop-color:#D6BB7B"/>
					<stop  offset="0.1965" style="stop-color:#D6BB7B"/>
					<stop  offset="0.298" style="stop-color:#DCC285"/>
					<stop  offset="0.4552" style="stop-color:#EDD9A1"/>
					<stop  offset="0.4958" style="stop-color:#F3E0AA"/>
					<stop  offset="0.5772" style="stop-color:#F6E6BD"/>
					<stop  offset="0.6554" style="stop-color:#F7EAC8"/>
					<stop  offset="0.726" style="stop-color:#F8ECCC"/>
					<stop  offset="0.854" style="stop-color:#E9D5A7"/>
					<stop  offset="1" style="stop-color:#D6BB7B"/>
				</linearGradient>
				<path class="st3" d="M168.3,116.3c0-28.8-23.3-52.2-52.1-52.2c-28.8,0-52.2,23.3-52.2,52.1s23.3,52.2,52.1,52.2
					C144.9,168.4,168.3,145.1,168.3,116.3z"/>
				<g>
					<g>
						<linearGradient id="SVGID_3_" gradientUnits="userSpaceOnUse" x1="78.4087" y1="41.675" x2="153.8692" y2="41.675">
							<stop  offset="4.556210e-02" style="stop-color:#F3D699"/>
							<stop  offset="0.2745" style="stop-color:#E9CD91"/>
							<stop  offset="0.4109" style="stop-color:#E1C68B"/>
							<stop  offset="0.4272" style="stop-color:#E1C68B"/>
							<stop  offset="0.5714" style="stop-color:#C5A870"/>
							<stop  offset="0.7276" style="stop-color:#E7D5A0"/>
							<stop  offset="0.7863" style="stop-color:#E3CA8C"/>
							<stop  offset="0.9442" style="stop-color:#D1B06A"/>
							<stop  offset="1" style="stop-color:#A7844B"/>
						</linearGradient>
						<path class="st4" d="M114,49c-0.1-4.7-0.7-16.4-1.7-21c0,0,1.3-3.1,1.4-3.2c0.6-0.4,1.6-0.6,2.4-0.5h0c1,0,1.9,0.2,2.4,0.5
							c0,0,1.4,3.2,1.4,3.2c-1,4.6-1.6,16.3-1.7,21c0.1,0,0.1,0,0.2,0c0.1,0,0.1,0,0.2,0h-4.8l0,0C113.9,49,114,49,114,49z
							 M126.1,33.6c2,0.2,5.3,1,6.2,4.4c1.4,4.8-2,10.3-3.5,12.4c-0.1,0-0.2,0-0.3-0.1l3.6,1l0,0c-0.3-0.1-0.6-0.2-0.6-0.2
							c1.8-2.6,7.5-11.5,3.5-16.9c-2-2.7-4.7-3.3-6.8-3.5c-2-0.2-4.1,0.5-4.8,0.7l-0.5,2.4l0,0C123,33.8,124.1,33.4,126.1,33.6z
							 M116.8,20.4l0.8-0.7l-1.5-1.3l-1.4,1.3l0.8,0.7c0,0-0.8,1.8-0.8,1.8l0,0c0.4-0.1,0.9-0.1,1.5-0.1c0.5,0,1,0,1.4,0.1
							C117.6,22.2,116.8,20.4,116.8,20.4z M85.4,57.7l3.7-2c-0.2,0.1-0.4,0.2-0.5,0.3c0,0,0,0,0,0c-4.3-2.7-6.3-5.5-6.2-8.4
							c0.1-3.5,2.9-5.7,5.5-6.3c1.6-0.4,3.8-0.5,5.1,0l0,0c-0.2-0.7-0.2-1.5-0.2-2.1c0,0,0,0.1,0,0.1c0,0,0,0,0,0
							c-0.8-0.3-4.2-0.6-7.1,0.4c-3.8,1.3-6.6,4.2-7,7.8C77.9,52.4,82.8,56.3,85.4,57.7z M100.6,51.2l3.1-0.8c-0.1,0-0.2,0-0.2,0
							c-1.5-2.1-4.9-7.7-3.5-12.4c1-3.5,4.2-4.3,6.2-4.4c1.9-0.2,3,0.2,3.2,0.2l-0.5-2.4c-0.8-0.3-2.8-0.9-4.8-0.7
							c-2,0.2-4.7,0.8-6.8,3.5c-4,5.5,1.7,14.4,3.5,16.9C100.7,51.2,100.7,51.2,100.6,51.2z M144.5,41.3c2.6,0.6,5.3,2.8,5.5,6.3
							c0.1,2.9-2,5.7-6.2,8.4c0,0-0.1,0-0.1-0.1l3,1.8l0.2-0.1c2.6-1.4,7.5-5.3,6.9-10.3c-0.4-3.6-3.2-6.5-7-7.8
							c-2.9-1-6.4-0.6-7.1-0.4c0,0,0,0,0,0c0,0.8-0.1,1.5-0.3,2c0,0,0,0,0,0C140.7,40.8,142.9,40.9,144.5,41.3z M93.4,63.8
							c14-6.1,29.5-6.4,43.7-0.8c1.4,0.6,2.8,1.2,4.2,1.9l3.7-4.1c-0.2,0.1-0.3,0.3-0.5,0.4c-0.6,0.4-1.5,0.9-2.7,0.9
							c-0.6,0-1.3-0.1-1.9-0.4c-1.6-0.7-2.5-2.5-2.6-3.1l-0.1-0.3l-0.2,0.2c-0.1,0.1-1,0.6-2.3,0.6c-0.5,0-1-0.1-1.4-0.2
							c-0.9-0.3-2.2-1.3-2.8-2.7l-0.1-0.2l-0.2,0.1c-0.1,0.1-1.2,1-2.8,1c-0.3,0-0.6,0-0.9-0.1c-1.9-0.4-3-2.2-3.1-2.2l-0.1-0.2
							l-0.2,0.2c-0.6,0.6-1.8,1.4-3.3,1.4c-1.3,0-2.4-0.6-3.4-1.6l-0.1-0.1l-0.1,0.1c-1,1.1-2.2,1.6-3.4,1.6c-1.5,0-2.7-0.7-3.3-1.4
							l-0.2-0.2l-0.1,0.2c0,0-1.1,1.8-3,2.2c-0.3,0.1-0.6,0.1-0.9,0.1c-1.7,0-2.8-1-2.8-1l-0.2-0.1l-0.1,0.2
							c-0.6,1.4-1.9,2.3-2.8,2.7c-0.5,0.2-0.9,0.2-1.4,0.2c-1.3,0-2.2-0.6-2.3-0.6l-0.2-0.2l-0.1,0.3c-0.2,0.6-1.1,2.4-2.6,3
							c-0.6,0.3-1.3,0.4-1.9,0.4c-0.9,0-1.8-0.3-2.7-0.9c-0.2-0.1-0.5-0.4-0.8-0.7l0,0l3.7,4.4C91.8,64.5,92.6,64.2,93.4,63.8z"/>
						<g>
							<g>
								<g>
									<path class="st2" d="M138.6,34.7c0.7-0.6,1-1.6,0.6-2.5c-0.5-1-1.7-1.5-2.7-1c-0.1,0-0.1,0.1-0.2,0.1
										c0.9,0.9,1.6,2,2.2,3.3C138.5,34.6,138.5,34.6,138.6,34.7z M139.2,41.8c-0.2,0.7-0.3,1-0.3,1c5.8-0.5,8.1,1.4,8.8,3.5
										c0.5,1.5,0.6,3.7-2.5,6.8c-1,1-1.9,1.7-2.6,2.2c0.3,0.1,0.8,0.4,1,0.5c0.1,0,0.1,0.1,0.1,0.1c4.3-2.7,6.3-5.5,6.2-8.4
										c-0.1-3.5-2.9-5.7-5.5-6.3c-1.6-0.4-3.8-0.5-5.1,0c0,0,0,0,0,0l0,0c0,0.2-0.1,0.3-0.1,0.5
										C139.2,41.7,139.2,41.8,139.2,41.8z M139.4,46.7c0.6-1,0.3-2.2-0.6-2.9c-0.1,0-0.1-0.1-0.2-0.1c-0.3,1.3-1.6,3.7-1.6,3.8
										C137.9,47.9,138.9,47.6,139.4,46.7z M136.6,48.5c-0.1,0-0.1-0.1-0.2-0.1c-0.5,1.2-2.2,3.4-2.2,3.5c0.8,0.5,1.8,0.3,2.5-0.4
										C137.4,50.6,137.4,49.3,136.6,48.5z M152.1,57c-1.1,1.2-3.3,2.2-3.4,2.2c0.5,0.8,1.5,1.1,2.4,0.8c1-0.4,1.5-1.7,1.1-2.7
										C152.2,57.2,152.2,57.1,152.1,57z M156.9,41.8c-0.5-1-1.7-1.5-2.7-1c-0.1,0-0.2,0.1-0.2,0.1c1.8,1.9,2.3,3.4,2.3,3.4
										C157.1,43.8,157.3,42.7,156.9,41.8z M152.2,39.4c0.4-0.9,0.2-1.9-0.6-2.5c-0.9-0.7-2.1-0.5-2.8,0.4c0,0.1-0.1,0.1-0.1,0.2
										c1,0.4,2.3,1,3.4,1.9C152.1,39.4,152.2,39.4,152.2,39.4z M98.1,51.9c0,0-1.7-2.2-2.2-3.5c-0.1,0-0.1,0.1-0.2,0.1
										c-0.8,0.8-0.9,2.1-0.1,2.9C96.2,52.2,97.3,52.3,98.1,51.9z M155.9,52.6c-0.7,1.6-2.4,3.3-2.4,3.3c0.8,0.5,1.8,0.5,2.5-0.2
										c0.8-0.8,0.8-2.1,0.1-2.9C156,52.8,155.9,52.7,155.9,52.6z M156.9,46.7c0.2,2.6-0.4,4.1-0.4,4.1c0.9,0.1,1.8-0.5,2-1.5
										c0.3-1.1-0.4-2.2-1.4-2.5C157,46.8,156.9,46.8,156.9,46.7z M145.6,36.6c0,0,0.1,0,0.2,0c0-1-0.7-1.8-1.6-2
										c-1.1-0.2-2.1,0.5-2.3,1.7c0,0.1,0,0.1,0,0.2C142.9,36.4,144.3,36.4,145.6,36.6z M139.6,38.8c0,0.2,0,0.5,0,0.4l0,0
										c0,0,0,0,0,0c0.8-0.3,4.2-0.6,7.1,0.4c3.8,1.3,6.6,4.2,7,7.8c0.6,5.1-4.4,8.9-6.9,10.3l-0.2,0.1l0,0l1,0.6
										c0.1,0,0.2-0.1,0.3-0.2c2.6-1.1,5.1-3.5,6.3-5.6c1.5-2.6,2.2-7.1-1.5-10.9c-5.8-6.1-13.3-3.7-13.3-3.7
										C139.6,38.1,139.6,38.4,139.6,38.8C139.6,38.7,139.6,38.7,139.6,38.8z M146.1,59.9C146.1,59.9,146.1,59.9,146.1,59.9
										c0.3-0.2,0.5-0.5,0.8-0.7c-0.5-0.1-13.4-8.7-29.8-8.9h-1.9c-16.5,0.3-29.2,8.8-29.8,8.9c0.3,0.2,0.5,0.4,0.8,0.7
										c0,0,0,0,0,0c0,0,0,0,0,0c0.8-0.5,4.9-2.9,11.2-5.1c4.1-1.5,11.2-3.2,18.7-3.2c7.5,0,14.7,1.7,18.7,3.2
										C141.2,57,145.3,59.4,146.1,59.9C146.1,59.9,146.1,59.9,146.1,59.9z M93.5,43.9c-0.9,0.6-1.2,1.9-0.6,2.9
										c0.5,0.8,1.5,1.2,2.4,0.8c0,0-1.3-2.5-1.6-3.8C93.6,43.8,93.6,43.8,93.5,43.9z M134.2,29.7c0.3-0.9-0.1-1.9-0.9-2.4
										c-1-0.6-2.2-0.3-2.7,0.7c0,0.1-0.1,0.1-0.1,0.2c1.2,0.2,2.4,0.7,3.6,1.4C134.2,29.7,134.2,29.7,134.2,29.7z M92.5,60.6
										c-0.5,0.3-1.1,0.4-1.6,0.4c-0.6,0-1.6-0.2-2.6-1.1l-0.9,0.5c0,0,0,0,0,0c0.3,0.3,0.6,0.5,0.8,0.7c0.8,0.6,1.7,0.9,2.7,0.9
										c0.6,0,1.3-0.1,1.9-0.4c1.6-0.7,2.5-2.5,2.6-3l0.1-0.3l0.2,0.2c0.1,0.1,1,0.6,2.3,0.6c0.5,0,1-0.1,1.4-0.2
										c0.9-0.3,2.2-1.3,2.8-2.7l0.1-0.2l0.2,0.1c0,0,1.1,1,2.8,1c0.3,0,0.6,0,0.9-0.1c1.9-0.4,3-2.2,3-2.2l0.1-0.2l0.2,0.2
										c0.6,0.6,1.8,1.4,3.3,1.4c1.3,0,2.5-0.6,3.4-1.6l0.1-0.1l0.1,0.1c1,1.1,2.1,1.6,3.4,1.6c1.5,0,2.7-0.7,3.3-1.4l0.2-0.2
										l0.1,0.2c0,0,1.2,1.8,3.1,2.2c0.3,0.1,0.6,0.1,0.9,0.1c1.6,0,2.7-0.9,2.8-1l0.2-0.1l0.1,0.2c0.6,1.4,1.9,2.3,2.8,2.7
										c0.5,0.2,0.9,0.2,1.4,0.2c1.3,0,2.2-0.6,2.3-0.6l0.2-0.2l0.1,0.3c0.2,0.6,1.1,2.4,2.6,3.1c0.6,0.3,1.3,0.4,1.9,0.4
										c1.2,0,2.1-0.5,2.7-0.9c0.1-0.1,0.3-0.2,0.5-0.4c0.1-0.1,0.3-0.2,0.4-0.4l-0.4-0.3l-0.5-0.3c-1,0.9-2,1.1-2.6,1.1
										c-0.5,0-1.1-0.1-1.6-0.4c-2-1.1-2.1-3.2-2.1-3.8l-0.3-0.1l-0.1,0c-0.3,0.3-0.6,0.5-0.7,0.7c-0.7,0.5-1.4,0.8-2.2,0.8
										c-0.6,0-1.1-0.2-1.7-0.5c-1.7-1-2-2.8-2-3.3l-0.5-0.1c-0.1,0.2-0.4,0.5-0.7,0.9c-0.7,0.6-1.5,1-2.4,1c-0.3,0-0.5,0-0.8-0.1
										c-2.2-0.5-2.8-2.6-2.9-3.1l-0.5-0.1c-0.2,0.6-1.1,2.3-3.3,2.3c-0.1,0-0.3,0-0.4,0c-2.1-0.2-2.8-2.1-2.9-2.7l-0.2,0l-0.2,0
										c-0.2,0.5-0.8,2.5-3,2.7c-0.1,0-0.3,0-0.4,0c-1.8,0-2.7-1.1-3.1-1.8c-0.1-0.1-0.2-0.3-0.2-0.5c-0.1,0-0.3,0-0.5,0.1
										c-0.1,0.6-0.7,2.6-2.9,3.1c-0.3,0.1-0.5,0.1-0.8,0.1c-0.8,0-1.7-0.3-2.3-1c-0.4-0.3-0.6-0.7-0.7-0.9l-0.5,0.1l0,0
										c0,0.5-0.3,2.3-2,3.3c-0.5,0.3-1.1,0.5-1.7,0.5c-0.7,0-1.5-0.3-2.2-0.8c-0.4-0.3-0.6-0.5-0.7-0.7l-0.4,0.2
										C94.6,57.4,94.4,59.5,92.5,60.6z M75.9,44.4c0-0.1,0.5-1.5,2.3-3.4c-0.1,0-0.2-0.1-0.2-0.1c-1-0.5-2.2,0-2.7,1
										C74.9,42.7,75.2,43.8,75.9,44.4z M80,57.2c-0.4,1.1,0,2.3,1.1,2.7c0.9,0.4,1.9,0,2.4-0.8c0,0-2.3-1-3.4-2.2
										C80.1,57.1,80,57.2,80,57.2z M76.2,52.8c-0.8,0.8-0.7,2.1,0.1,2.9c0.7,0.7,1.8,0.7,2.5,0.2c0,0-1.7-1.7-2.4-3.3
										C76.3,52.7,76.2,52.8,76.2,52.8z M75.7,50.9c0,0-0.6-1.5-0.4-4.1c-0.1,0-0.2,0.1-0.2,0.1c-1.1,0.3-1.7,1.4-1.4,2.5
										C73.9,50.3,74.8,50.9,75.7,50.9z M127.8,28c0,0,0.1,0,0.1,0c-0.2-0.9-1-1.6-2-1.6c-1.1,0-2,0.9-2,2.1c0,0.1,0,0.1,0,0.2
										C125.2,28.3,126.5,28,127.8,28z M113.9,49L113.9,49c0.1,0,0.1,0,0.1,0c-0.1-4.7-0.7-16.4-1.7-21c0,0,1.3-3.1,1.4-3.2
										c0.6-0.4,1.6-0.6,2.4-0.5h0c1,0,1.9,0.2,2.4,0.5c0,0,1.4,3.2,1.4,3.2c-1,4.6-1.6,16.3-1.7,21c0.1,0,0.1,0,0.2,0
										c0.1,0,0.1,0,0.2,0c0.2,0,0.5,0,0.7,0c0.8-14.6,3.2-21.1,3.2-21.1c-0.3-0.5-0.7-0.9-1-1.4c-0.3-0.4-0.6-0.9-0.9-1.3
										c-0.3-0.4-0.6-0.8-0.8-1.2c-1-0.7-2.1-1.1-3.5-1.1h-0.2c-0.1,0-0.2,0-0.2,0c-1.4,0-2.4,0.4-3.4,1.1
										c-0.3,0.4-0.6,0.8-0.9,1.2c-0.3,0.4-0.6,0.9-0.9,1.3c-0.3,0.5-0.7,0.9-1,1.4c0,0,2.4,6.5,3.2,21.1
										C113.2,49,113.6,49,113.9,49z M113.2,22.6c0,0,0.4-0.2,1.5-0.4c0,0,0.8-1.8,0.8-1.8l-0.8-0.7l1.4-1.3l1.5,1.3l-0.8,0.7
										c0,0,0.8,1.8,0.8,1.8c1.1,0.2,1.5,0.4,1.5,0.4l-0.9-1.8c0.3-0.3,1-1,1-1h0l-3-2.5l-2.9,2.5c0,0,0.6,0.6,1,1L113.2,22.6z
										 M108.2,28.7c0-0.1,0-0.1,0-0.2c0-1.1-0.9-2.1-2-2.1c-1,0-1.8,0.7-2,1.6c0.1,0,0.1,0,0.2,0C105.8,28,107.1,28.3,108.2,28.7
										z M106.2,33.6c-2,0.2-5.3,1-6.2,4.4c-1.4,4.8,2.1,10.3,3.5,12.4c0,0,0.1,0,0.2,0c0.3-0.1,1-0.2,1.2-0.3
										c-1.8-2.8-3.1-6.8-2.9-9.6c0.5-6.3,7.7-5,7.7-5l-0.3-1.8c0,0,0,0,0,0C109.2,33.8,108.1,33.5,106.2,33.6z M130.2,40.5
										c0.2,2.8-1.1,6.8-2.9,9.6c0.4,0.1,0.7,0.2,1.1,0.2c0,0,0,0,0,0c0.1,0,0.2,0.1,0.3,0.1c1.5-2.1,4.9-7.7,3.5-12.4
										c-1-3.5-4.2-4.3-6.2-4.4c-2-0.2-3.1,0.2-3.2,0.2l0,0l0,0l-0.3,1.8C122.6,35.6,129.7,34.3,130.2,40.5z M128.2,30.7
										c2,0.2,4.7,0.8,6.8,3.5c4,5.4-1.7,14.3-3.5,16.9c0.1,0,0.3,0.1,0.6,0.2c0.2,0.1,0.4,0.1,0.6,0.2c1.6-2,4.7-7.2,5.1-11.3
										c0.4-3.3-0.3-7-4.7-9.5c-1.6-0.9-3.5-1.3-5.3-1.3c-1.2,0-2.4,0.2-3.4,0.6c-0.3,0.1-0.5,0.2-0.8,0.3c0,0-0.3,1.2-0.3,1.2
										l0,0C124.2,31.1,126.2,30.5,128.2,30.7z M98.2,29.7c1.2-0.7,2.4-1.2,3.6-1.4c0-0.1,0-0.1-0.1-0.2c-0.6-1-1.8-1.3-2.7-0.7
										c-0.8,0.5-1.2,1.5-0.9,2.4C98.1,29.7,98.1,29.7,98.2,29.7z M78,52.6c1.2,2.1,3.7,4.5,6.3,5.6c0,0,0.8-0.4,1.1-0.6
										c0,0,0,0,0,0c0,0,0,0,0,0c-2.6-1.4-7.5-5.3-6.9-10.3c0.4-3.6,3.2-6.5,7-7.8c2.9-1,6.4-0.6,7.1-0.4c0,0,0,0,0,0
										c0,0,0,0,0-0.1c0-0.2,0-0.9,0-1.2c0,0-7.5-2.3-13.3,3.7C75.8,45.5,76.4,50.1,78,52.6z M87.8,41.3c-2.6,0.6-5.3,2.8-5.5,6.3
										c-0.1,2.9,2,5.7,6.2,8.4c0,0,0,0,0,0c0.2-0.1,0.4-0.2,0.5-0.3c0.2-0.1,0.4-0.2,0.6-0.3c-0.7-0.6-1.7-1.3-2.7-2.2
										c-3.1-3.1-2.9-5.4-2.5-6.8c0.7-2.1,3-4,8.8-3.5c0,0-0.1-0.5-0.4-1.6l0,0l0,0C91.6,40.8,89.3,40.9,87.8,41.3z M80.1,39.3
										c1.1-0.9,2.4-1.5,3.4-1.9c0-0.1-0.1-0.1-0.1-0.2c-0.7-0.9-1.9-1.1-2.8-0.4c-0.8,0.6-1,1.7-0.6,2.5
										C80,39.4,80.1,39.4,80.1,39.3z M90.5,36.5c0-0.1,0-0.1,0-0.2c-0.2-1.1-1.2-1.9-2.3-1.7c-0.9,0.2-1.6,1-1.6,2
										c0.1,0,0.1,0,0.2,0C87.9,36.4,89.3,36.4,90.5,36.5z M93.7,34.7c0-0.1,0-0.1,0.1-0.1c0.6-1.3,1.4-2.4,2.2-3.3
										c-0.1,0-0.1-0.1-0.2-0.1c-1-0.5-2.2-0.1-2.7,1C92.7,33,93,34.1,93.7,34.7z M94.5,40.2c0.4,4.1,3.6,9.3,5.1,11.3
										c0.3-0.1,0.6-0.2,0.9-0.3c0,0,0.1,0,0.1,0c0.1,0,0.1,0,0.2,0c-1.8-2.6-7.5-11.5-3.5-16.9c2-2.8,4.7-3.3,6.8-3.5
										c2-0.2,4.1,0.4,4.8,0.7l0,0c0,0,0,0,0,0c0,0,0-0.1,0-0.1c0-0.1,0-0.2-0.1-0.3c-0.1-0.3-0.2-0.7-0.2-0.7
										c-0.2-0.1-0.5-0.2-0.8-0.3c-1-0.4-2.1-0.5-3.4-0.5c-1.8,0-3.7,0.4-5.3,1.3C94.8,33.2,94.1,36.8,94.5,40.2z"/>
								</g>
							</g>
							<g>
								<g>
									<g>
										<path class="st2" d="M116.1,27.9L116.1,27.9c0.8,0,1.1,0.6,1.1,0.6s-0.6,9.1-0.7,15.5l-0.7,0c0-6.4-0.9-15.5-0.9-15.5
											S115.4,27.9,116.1,27.9z"/>
									</g>
								</g>
							</g>
						</g>
					</g>
					<g>
						<path class="st2" d="M168.6,93.4c-6.1-14-17.3-24.8-31.5-30.4c-14.2-5.6-29.7-5.3-43.7,0.8C76.9,71,65.5,85.1,61.1,101.2h1.4
							C66.8,85.6,77.9,72,93.9,65c7.1-3.1,14.7-4.7,22.3-4.7c6.9,0,13.8,1.3,20.5,3.9c13.9,5.5,24.8,16,30.8,29.7
							c0.7,1.6,1.3,3.2,1.9,4.9h1.4C170.1,97,169.4,95.2,168.6,93.4z"/>
						<path class="st2" d="M138.5,167.4c-26.4,11.5-57,0.9-70.9-23.7h-1.5c10.2,18.7,29.8,29.6,50.2,29.6c7.6,0,15.3-1.5,22.7-4.8
							c12.7-5.5,22.7-15.2,28.6-27.5h-1.5C160.3,152.9,150.6,162.1,138.5,167.4z"/>
					</g>
				</g>
				<g>
					<polygon class="st5" points="177.8,132.9 177.5,133.5 177.2,133.9 173.4,139.3 174,139.8 177.8,134.4 178.1,133.9 178.5,133.4 
											"/>
					<polygon class="st5" points="207,133.9 203.2,139.3 203.8,139.8 207.7,134.4 208.3,133.4 207.7,132.9 					"/>
					<polygon class="st5" points="211.5,106.4 211,105.9 206.8,110.4 207.3,111 					"/>
					<polygon class="st5" points="204.2,126 204.2,113.2 204.2,110.1 204.2,109 204,108.8 203.4,109.4 203.4,130.2 204.2,130.8 
						204.2,129.8 					"/>
					<polygon class="st5" points="193.9,133.4 193.3,133 188.9,139.3 189.6,139.8 193.6,134.1 194,133.5 					"/>
					<path class="st5" d="M194.7,109.2c0-0.4-0.1-0.7-0.1-1.1c-0.2-1.1-1.1-2.8-3-4.2c0,0,0.7,0.7,1.4,2c0.4,0.8,0.4,0.9,0.6,1.4
						c0.1,0.4,0.2,0.8,0.3,1.2c0.1,0.4,0.1,0.8,0.1,1.2c0,4.3-2.9,9.1-8.7,14.2v3.9l0.8,0.5v-4.1c4.3-3.8,7-7.5,8.1-11
						c0.4-1.2,0.6-2.4,0.6-3.6C194.8,109.5,194.7,109.3,194.7,109.2z"/>
					<polygon class="st5" points="174.6,107.4 173.8,106.8 173.8,130.4 174.6,131 					"/>
					<polygon class="st5" points="46.7,128.8 46.7,127.2 46.7,128.8 					"/>
					<polygon class="st5" points="35.5,94.4 36.2,93.4 35.6,92.9 34.7,94.2 34.7,130 35.5,130.6 					"/>
					<polygon class="st5" points="57.8,86.7 57,87.2 57,129 46.8,139.3 47.4,139.8 57.8,129.3 					"/>
					<polygon class="st5" points="45.8,129.2 46.7,129.8 46.7,91.4 45.8,91.4 					"/>
					<polygon class="st5" points="39.3,135.7 38.3,136.6 39.3,135.7 					"/>
					<polygon class="st5" points="39.3,135.7 39.9,135.1 39.2,134.6 34.5,139.3 35.2,139.8 38.3,136.6 38.3,136.6 38.3,136.6 
						39.3,135.7 					"/>
					<polygon class="st5" points="39.9,135.1 39.2,134.6 34.5,139.3 35.2,139.8 					"/>
					<path class="st5" d="M186,109.1L186,109.1c-0.1-0.1-0.2-0.3-0.4-0.4c-0.1-0.1-0.3-0.3-0.4-0.4v8.8c0.3-0.3,0.6-0.7,0.8-1.1
						V109.1z"/>
				</g>
				<g>
					<polygon class="st2" points="149.5,95.5 145,92 141.5,96.6 146,100.1 					"/>
					<path class="st2" d="M101.1,109.1c0-1.2,0.5-2.4,0.8-2.9l5.2,4.1l3.6-4.5l-6-4.9c-4.5,1.6-8.5,5.5-8.5,10.8
						c0,8.9,10.7,10.3,10.7,17.5c0,1.4-0.4,2.9-0.9,3.9l-6.3-4.4l-3.6,5l7.3,5.2c4.1-2.4,8.6-7.1,8.6-12.3
						C111.9,117.2,101.1,115.4,101.1,109.1"/>
					<polygon class="st2" points="92.6,132.9 89.6,130.6 89.6,109 91,107.6 93.2,109.9 97.4,105.3 93.1,101 89.3,104.9 89.3,104.6 
						84.5,101 80.7,106.4 83.4,108.4 83.4,132.8 82.7,133.7 88.8,138.3 89.6,138.9 93.3,133.5 94,132.5 93.3,131.9 					"/>
					<path class="st2" d="M80.2,132.6l-2.4-1.6l0-23.5l-7.8-6.6l-9.5,7.1l0,25.7l6.8,5.2l4.1-4.1l5.5,4.1l4.5-6.4l-0.8-0.6
						L80.2,132.6z M71.6,130.2l-2.1,2.1l-2.8-2.1l0-22.6l1-1l3.9,3.6V130.2z"/>
					<polygon class="st2" points="49.8,130.6 48.3,132 45,129.6 45,90.6 38.6,90.6 38.6,129.6 36.1,132.1 33.9,130.4 33.9,93.9 
						34.9,92.4 27.4,86.7 23.5,92.3 27.4,95.3 27.4,131.6 26.3,133.2 33.9,138.9 39.1,133.6 46.1,138.9 56.2,128.7 56.2,86.7 
						49.8,90.6 					"/>
					<polygon class="st2" points="175.7,132.9 173,130.8 173,106.2 166.1,101 161.6,105.6 161.6,104.6 156.8,101 153,106.4 
						155.7,108.4 155.7,134 154.9,135.2 159.7,138.9 163.5,133.5 161.9,132.2 161.9,109.7 164,107.6 166.8,109.7 166.8,134.3 
						172,138.3 172.8,138.9 176.5,133.5 177.2,132.5 176.5,131.9 					"/>
					<path class="st2" d="M193.2,109.7c0-4.3-3.4-6.6-6.4-8.7l-8.5,7.1l0,24.1l10,6.8l4.5-6.4l-0.8-0.6l-0.7,1l-6.8-4.7v-4.7
						C187.1,121.2,193.2,115.6,193.2,109.7 M184.4,106.7c1.3,0.9,3.7,2.7,3.7,5.6c0,2.7-2.1,5.2-3.7,6.9V106.7z"/>
					<polygon class="st2" points="205.6,132.9 202.6,130.6 202.6,109 204,107.6 206.2,109.9 210.4,105.3 206.1,101 202.3,104.9 
						202.3,104.6 197.5,101 193.7,106.4 196.4,108.4 196.4,132.8 195.7,133.7 201.8,138.3 202.6,138.9 206.3,133.5 207,132.5 
						206.3,131.9 					"/>
					<path class="st2" d="M140.1,109.7c0-4.3-3.4-6.6-6.3-8.7l-8.5,7.1l0,24.1l10,6.8l4.5-6.4l-0.8-0.6l-0.7,1l-6.8-4.7v-4.7
						C134.1,121.2,140.1,115.6,140.1,109.7 M131.4,106.7c1.3,0.9,3.7,2.7,3.7,5.6c0,2.7-2.1,5.2-3.7,6.9V106.7z"/>
					<polygon class="st2" points="152.3,132.9 149.6,130.8 149.6,104.6 144.8,101 141,106.4 143.4,108.2 143.4,132.4 142.5,133.7 
						148.6,138.3 149.3,138.9 153.1,133.5 153.8,132.5 153,131.9 					"/>
					<polygon class="st2" points="120.2,82.2 114.1,85.9 114.1,139.5 113.1,140.8 119.2,145.4 120,146 123.7,140.6 124.4,139.6 
						123.7,139 123,140 120.2,137.9 120.2,100.4 123.5,100.4 127.3,95 120.2,95 					"/>
				</g>
				<g>
					<g>
						<path class="st2" d="M44.4,164.4l-1.8-2.6l8.5-5.7l1.8,2.6c1.7,2.5,0.8,5-1.6,6.7C48.8,167,46.1,166.9,44.4,164.4z
							 M51.5,159.4l-0.6-0.9l-5.8,3.9l0.6,0.9c0.9,1.4,2.6,1.6,4.5,0.3C51.7,162.6,52.6,161.1,51.5,159.4z"/>
						<path class="st2" d="M53.8,176l1.5-2.2l-1.7-1.8l-2.3,1.3l-1.3-1.4l9.5-4.7l1.2,1.3l-5.5,9.1L53.8,176z M58.1,169.4l-3.2,1.8
							l1.2,1.3L58.1,169.4z"/>
						<path class="st2" d="M67.6,177.9c-0.3-1-0.6-1.4-1.2-1.9c-0.4-0.3-1.1-0.4-1.5,0.1c-0.4,0.5-0.2,1.5,0.1,2.4
							c0.1,0.4,0.2,0.7,0.3,1.1c0.1,0.3,0.1,0.6,0.1,0.9c0,0.6-0.2,1.2-0.7,1.8c-1.1,1.4-2.7,1.5-4.2,0.3c-1-0.9-1.4-1.8-1.7-2.8
							l1.7-0.8c0.2,0.9,0.5,1.7,1.1,2.3c0.4,0.3,1.1,0.3,1.5-0.2c0.3-0.4,0.3-0.9,0.2-1.5c-0.1-0.5-0.3-1.1-0.4-1.4
							c-0.5-1.7-0.4-2.5,0.3-3.4c1.2-1.5,2.9-1.3,4.3-0.2c0.9,0.8,1.3,1.4,1.6,2.5L67.6,177.9z"/>
						<path class="st2" d="M73.7,191.5l4.8-9l4.7,2.5l-0.7,1.4l-3.1-1.6l-1.3,2.4l2.5,1.3l-0.7,1.4l-2.5-1.3l-1.4,2.6l3.2,1.7
							l-0.7,1.4L73.7,191.5z"/>
						<path class="st2" d="M83.7,196.2l3.7-9.5l1.7,0.7l-3.7,9.5L83.7,196.2z"/>
						<path class="st2" d="M96.9,200.4l-1.8-7.7l-1.7,6.8l-1.7-0.4l2.5-9.9l2,0.5l1.7,7.8l1.7-6.9l1.7,0.4l-2.5,9.9L96.9,200.4z"/>
						<path class="st2" d="M104.8,201.9l0.1-1.2l5.3-7l-4.5-0.4l0.1-1.5l6.8,0.6l-0.1,1.2l-5.2,7l4.5,0.4l-0.1,1.6L104.8,201.9z"/>
						<path class="st2" d="M117.1,202.5l-0.2-10.2l1.9,0l0.2,10.2L117.1,202.5z"/>
						<path class="st2" d="M130.7,193.3c-0.7-0.3-1.6-0.6-2.5-0.5c-1.6,0.2-2.7,1.9-2.4,4c0.3,2.1,2,3.5,3.6,3.3
							c0.2,0,0.3-0.1,0.4-0.1c0.1-0.1,0.3-0.1,0.5-0.2l-0.4-2.9l1.8-0.3l0.6,4.1c-0.5,0.2-0.9,0.5-1.4,0.6c-0.5,0.2-1,0.3-1.5,0.4
							c-2.6,0.4-5-1.5-5.5-4.6c-0.4-3,1.2-5.5,3.9-5.9c1.2-0.2,2.2-0.1,3.3,0.3L130.7,193.3z"/>
						<path class="st2" d="M163.5,188.3l-1.9-1.8l-2.1,1.3l0.8,2.5l-1.6,1l-2.9-10.2l1.4-0.9l7.9,7.1L163.5,188.3z M157.8,182.8
							l1.2,3.5l1.5-0.9L157.8,182.8z"/>
						<path class="st2" d="M174.1,180.1l-2.9-3.4l-3,2.6l2.9,3.4l-1.4,1.2l-6.7-7.7l1.4-1.2l2.7,3.1l3-2.6l-2.7-3.1l1.4-1.2l6.7,7.7
							L174.1,180.1z"/>
						<path class="st2" d="M182.9,170.8l-4.5-1.3l-0.3,0.4l3.2,2.7l-1.2,1.4l-7.8-6.6l1.8-2.1c1.4-1.6,2.7-1.9,4.3-0.5
							c1.3,1.1,1.5,2.2,1,3.2l4.7,1.3L182.9,170.8z M175.2,166.3l-0.6,0.7l2.4,2l0.6-0.7c0.5-0.6,0.3-1.4-0.3-2
							C176.5,165.7,175.7,165.7,175.2,166.3z"/>
						<path class="st2" d="M187.4,164.7l-8.6-5.5l2.9-4.5l1.3,0.8l-1.9,2.9l2.3,1.4l1.5-2.4l1.3,0.8l-1.5,2.4l2.4,1.6l2-3.1l1.3,0.8
							L187.4,164.7z"/>
					</g>
					<g>
						<path class="st2" d="M45.6,72.5c-0.9,0.4-1.3,0.8-1.7,1.5c-0.3,0.5-0.2,1.2,0.4,1.5c0.6,0.3,1.5-0.1,2.4-0.5
							c0.4-0.2,0.7-0.3,1-0.5c0.3-0.1,0.6-0.2,0.9-0.3c0.6-0.1,1.2,0,2,0.4c1.6,0.9,2,2.5,1,4.2C50.9,80,50.1,80.5,49,81l-1.1-1.6
							c0.9-0.4,1.7-0.8,2.1-1.5c0.3-0.5,0.2-1.2-0.4-1.5c-0.4-0.2-1-0.1-1.5,0.1c-0.5,0.2-1,0.5-1.3,0.6c-1.7,0.8-2.5,0.8-3.5,0.2
							c-1.7-1-1.8-2.7-0.9-4.3c0.6-1,1.2-1.5,2.2-2.1L45.6,72.5z"/>
						<path class="st2" d="M55.1,72.9l-8.3-6.3l3.3-4.3l1.3,1L49.2,66l2.2,1.7l1.8-2.3l1.3,1l-1.8,2.3l2.4,1.8l2.2-2.9l1.3,1
							L55.1,72.9z"/>
						<path class="st2" d="M61,65.7l-7.6-7.2l1.3-1.4l7.6,7.2L61,65.7z"/>
						<path class="st2" d="M62.2,52.3L68,59l-1.4,1.2l-5.8-6.7l-1.9,1.7l-1-1.2l5.3-4.6l1,1.2L62.2,52.3z"/>
					</g>
					<polygon class="st2" points="149.1,185 150.1,190.6 150.6,192.3 150.6,192.3 149.7,190.7 146.2,186.2 145.7,186.4 145.7,186.4 
						145.6,186.4 145.5,186.5 145.5,186.5 145.1,186.6 145.9,192.3 146.5,194.1 146.4,194.1 145.6,192.5 142.2,187.9 140.6,188.6 
						146.7,197 148,196.5 147.2,190.7 146.8,189.2 146.8,189.2 146.8,189.2 146.9,189.2 147.7,190.6 151.3,195.1 152.5,194.5 
						150.7,184.3 					"/>
					<g>
						<path class="st2" d="M165.1,59.4l1.4,1.3l6.9-8l-1.3-1.1l-2.6-0.6l-0.9,1.5l1.9,0.4l0.1,0.1l0,0.1L165.1,59.4z"/>
					</g>
					<g>
						<path class="st2" d="M169.3,63.3l1.4,1.5l9.2-3.5l1.1-1l-4.3-4.6l-1.4,1.3l2.8,3l-0.1,0.1L169.3,63.3z"/>
					</g>
					<g>
						<path class="st2" d="M174.9,68.9c0.1,0.6,0.3,1.4,1,2.3c1.1,1.5,3.3,2.3,5.2,0.9c0.9-0.7,1.4-1.5,1.5-2.4
							c0.1-0.8-0.2-1.6-0.8-2.3c-0.1-0.2-0.2-0.3-0.4-0.4l-0.1-0.1l1.6-0.9l0,0.1l2.1,2.8l1.5-1.1l-2.9-3.9l-4.7,2.8
							c0.3,0.3,0.5,0.5,0.8,0.9c1,1.4,1.1,2.5,0.1,3.2c-0.4,0.3-0.9,0.4-1.4,0.3c-0.4-0.1-0.8-0.4-1.1-0.8c-0.5-0.7-0.7-1.5-0.8-1.9
							L174.9,68.9z"/>
					</g>
					<g>
						<path class="st2" d="M180.2,76c-0.1,0.6,0.1,1.6,0.7,2.6c0.5,0.9,1.3,1.6,2.1,1.9c0.8,0.3,1.7,0.2,2.5-0.3
							c1.1-0.6,1.6-1.8,1.2-2.9l0-0.1l0.1-0.1l0,0c0.9,0.7,1.9,0.8,2.9,0.2c0.6-0.4,1.1-0.9,1.2-1.6c0.2-0.7,0-1.5-0.4-2.3
							c-0.6-1-1.4-1.7-2-2l-1.2,1.2c0.4,0.2,1.1,0.7,1.4,1.3c0.4,0.8,0.3,1.5-0.3,1.8c-0.8,0.5-1.6-0.1-2-0.8l-0.4-0.7l-1.4,0.8
							l0.4,0.7c0.3,0.4,0.4,0.9,0.3,1.3c-0.1,0.5-0.3,0.9-0.8,1.1c-0.4,0.2-0.8,0.3-1.1,0.2c-0.4-0.1-0.7-0.4-1-0.9
							c-0.4-0.8-0.5-1.7-0.5-2.1L180.2,76z"/>
					</g>
				</g>
			</g>
		</g>
	</g>
	<path class="st2" d="M116.2,0C52.1,0,0,52.1,0,116.2c0,64.1,52.1,116.2,116.2,116.2c64.1,0,116.2-52.1,116.2-116.2
		C232.4,52.1,180.3,0,116.2,0z M116.2,231.6c-63.6,0-115.4-51.7-115.4-115.4C0.9,52.6,52.6,0.9,116.2,0.9
		c63.6,0,115.4,51.8,115.4,115.4C231.6,179.8,179.8,231.6,116.2,231.6z"/>
</g>
</svg>
